<svg id="Layer_1" data-name="Layer 1" xmlns="http://www.w3.org/2000/svg" viewBox="0 0 284.23 90.18"><title>logo</title><path d="M106,89.71c-.1.16-.12.34-.06.41s.25.05.42,0l4.08-2.25c.16-.09.25,0,.19.16a32.86,32.86,0,0,0-1.49,10.84c0,.19.08.2.16,0a30.34,30.34,0,0,0,2.26-5.47,13.19,13.19,0,0,1,2.67-5.27c1.6-1.84,3.33-3.57,5-5.33a2.5,2.5,0,0,1,.45-.34c.16-.1.29,0,.3.15a23,23,0,0,1,.1,3.28,14.19,14.19,0,0,1-.85,4.69,12.64,12.64,0,0,0-1.21,5c-.13,2.7-.33,5.39-.45,8.09-.15,3.3-1.23,6-4.44,7.48-.19.09-.28.39-.38.68s0,.36.05.41a.45.45,0,0,0,.42-.14,16.63,16.63,0,0,0,1.32-1.26c1.49-1.68,4.65-2.11,6.32-.68a2.93,2.93,0,0,0,2.84.75c.18,0,.2-.15,0-.24l-3.08-1.67c-.16-.09-.15-.2,0-.25l2.39-.65c.18,0,.32-.14.31-.2s.12,0,.29,0l.27.14c.17.08.24,0,.16-.16-.56-1.22-.83-1.21-2.09-.72a10.41,10.41,0,0,1-2.15.41c-.18,0-.26-.08-.16-.24l.62-1.06c.09-.16.13-.32.09-.35s-.2,0-.35.15l-1.18.91a.2.2,0,0,1-.34-.12,3.91,3.91,0,0,1-.21-1.15c.22-3,.45-6.06.77-9.08a12.26,12.26,0,0,1,.75-2,5.51,5.51,0,0,0,.45-2.25,5.39,5.39,0,0,1,1.36-4.46,24.86,24.86,0,0,0,2-3.31,12.16,12.16,0,0,0,.66-1.53c.07-.17.19-.32.27-.32a.18.18,0,0,1,.18.14c0,.08.07.3.11.48a7,7,0,0,1,.23,2c-.22,2.23-.66,4.44-.89,6.67a7.05,7.05,0,0,0,.15,3.17c1.64,4.18,1.71,8.58,2.05,13a3.63,3.63,0,0,1-1.73,3.47,24.46,24.46,0,0,1-3,1.34,5.47,5.47,0,0,0-.84.55c-.15.11-.13.24,0,.28a3,3,0,0,0,2.68-.64c1.78-1.36,3.65-1.16,5.52-.26a21.61,21.61,0,0,0,3.17,1.67c.93.27,2.34-.22,3.13,0,.18.05.25,0,.17-.16-.38-.83-.84-1-2.09-1a5.09,5.09,0,0,1-3.95-1.65c-.13-.14-.07-.24.11-.22l4.81.5c.19,0,.31,0,.27-.13a.76.76,0,0,1,0-.5c.1-.24.38-.49,1.15-.28.18,0,.22,0,.08-.14a2.63,2.63,0,0,0-1.75-.85c-1,.14-2,.53-2.95.73a1.78,1.78,0,0,1-2.18-1c-.08-.17,0-.25.18-.2a.81.81,0,0,0,1.15-.74.32.32,0,0,1,.37-.28l.38.06c.18,0,.24-.07.11-.2-1.06-1.08-1.89-.54-2.74.47a.19.19,0,0,1-.35,0,10.75,10.75,0,0,1-.76-1.86c-.27-1.2-.41-2.44-.62-3.66-.72-4.18-.39-8.39-.16-12.58.1-1.92,1-3.78,1.27-5.7.68-4.46,3.35-7.74,6.1-11a.46.46,0,0,1,.52-.11l.52.25a.2.2,0,0,0,.31-.19c0-.5,0-1,0-1.5,0-.19.13-.26.3-.17l.62.36c.16.09.29,0,.28-.17l0-1.51a.21.21,0,0,1,.31-.22l.47.17c.18.06.29,0,.25-.22l-.24-1.11c0-.18.06-.25.22-.16L138,70c.16.1.28,0,.27-.16l-.16-2.59a.25.25,0,0,1,.31-.28l.62.11a.23.23,0,0,0,.28-.28L139,64.93a.21.21,0,0,1,.27-.26l.34.08a.23.23,0,0,0,.3-.26l-.08-.8a3.54,3.54,0,0,1,0-.42v-.08l.58-9s0-.07,0-.11,0-.19,0-.29,0-.12,0-.18c.06-1.31,0-2.63,0-3.94a12.36,12.36,0,0,0-4.21-9.82,21.32,21.32,0,0,1-3.48-3.42,1,1,0,0,1-.18-.44,1.42,1.42,0,0,0,0-.15l0-.13a4.59,4.59,0,0,1,.07-.46,1.52,1.52,0,0,0-.21-1,3.33,3.33,0,0,1-.26-2.94.6.6,0,0,1,.48-.33c6.16-.37,12.07,1.13,18.06,1.78.19,0,.21,0,0-.14a7.5,7.5,0,0,0-1.28-.53c-2.28-.75-4.56-1.53-6.86-2.21a9.66,9.66,0,0,1-4.19-2.48A12.68,12.68,0,0,0,134.84,25a5.54,5.54,0,0,0-7.66,5.24,20.73,20.73,0,0,1-.35,4.48c-.36,1.78-1,3.5-1.47,5.25-.05.18-.05.35,0,.37s.16-.09.24-.26l2.62-5.51c.08-.17.2-.16.27,0a19.4,19.4,0,0,0,5.45,7.5c3.13,2.66,3.89,5.88,2.5,9.73a3.78,3.78,0,0,1-3.23,2.74,15.32,15.32,0,0,1-3.59.14c-3.75-.4-6.54,1.14-9,3.83A31.09,31.09,0,0,0,114,70.17q-2,6-4,11.95s0,0-.07.05-.1-.08-.12-.22-.12-.13-.22,0l-3.33,5.45c-.1.16,0,.24.14.18l.73-.25c.18-.06.24,0,.14.18Z" transform="translate(-42.81 -24.49)" style="fill:#139dd9"/><path d="M76.31,49.19q-8.55,0-13.23,6.42T58.39,73.5q0,23.88,17.92,23.88,7.52,0,18.21-3.76v12.7A50.58,50.58,0,0,1,74.89,110q-15.58,0-23.83-9.45T42.81,73.4A44.29,44.29,0,0,1,46.86,53.9,29.29,29.29,0,0,1,58.51,41.06a34.45,34.45,0,0,1,17.8-4.47,48,48,0,0,1,20.9,5l-4.88,12.3a80.94,80.94,0,0,0-8.06-3.32A24,24,0,0,0,76.31,49.19Z" transform="translate(-42.81 -24.49)" style="fill:#139dd9"/><path d="M188.61,109l-2.88-7.42h-.39a22,22,0,0,1-7.74,6.57A25,25,0,0,1,167.22,110q-7.86,0-12.38-4.49t-4.52-12.79q0-8.69,6.08-12.82t18.33-4.57l9.47-.29V72.62q0-8.3-8.5-8.3-6.54,0-15.38,4l-4.93-10.06a44.38,44.38,0,0,1,20.9-4.93q11,0,16.85,4.79T199,72.62V109Zm-4.39-25.29-5.76.2q-6.49.2-9.67,2.34a7.36,7.36,0,0,0-3.17,6.54q0,6.3,7.23,6.3a11.45,11.45,0,0,0,8.28-3,10.46,10.46,0,0,0,3.1-7.91Z" transform="translate(-42.81 -24.49)" style="fill:#139dd9"/><path d="M264.73,109H249.84V77.11q0-5.91-2.1-8.86t-6.69-3q-6.25,0-9,4.17t-2.78,13.84V109H214.34V54.41h11.38l2,7h.83a15.74,15.74,0,0,1,6.86-6,23.36,23.36,0,0,1,9.94-2q9.52,0,14.45,5.15t4.93,14.87Z" transform="translate(-42.81 -24.49)" style="fill:#139dd9"/><path d="M304.77,110q-13.18,0-20.61-7.28T276.75,82.1q0-13.72,6.86-21.22t19-7.5q11.57,0,18,6.59T327,78.19v7.23H291.83q.24,6.35,3.76,9.91t9.86,3.56a41,41,0,0,0,9.33-1A46.66,46.66,0,0,0,324,94.6v11.52a35,35,0,0,1-8.35,2.91A52.65,52.65,0,0,1,304.77,110Zm-2.1-46a9.44,9.44,0,0,0-7.42,3q-2.69,3-3.08,8.52h20.9Q313,70,310.19,67A9.75,9.75,0,0,0,302.67,64Z" transform="translate(-42.81 -24.49)" style="fill:#139dd9"/></svg>